<svg width="30" height="30" viewBox="0 0 30 30" fill="none" xmlns="http://www.w3.org/2000/svg">
<path fill-rule="evenodd" clip-rule="evenodd" d="M15 0C6.71573 0 0 6.71573 0 15C0 23.2843 6.71573 30 15 30C23.2843 30 30 23.2843 30 15C30 6.71573 23.2843 0 15 0ZM14 9C14 8.44772 14.4477 8 15 8C15.5523 8 16 8.44772 16 9V14H21C21.5523 14 22 14.4477 22 15C22 15.5523 21.5523 16 21 16H16V21C16 21.5523 15.5523 22 15 22C14.4477 22 14 21.5523 14 21V16H9C8.44772 16 8 15.5523 8 15C8 14.4477 8.44772 14 9 14H14V9Z" fill="#007AFF"/>
</svg>
